<svg xmlns="http://www.w3.org/2000/svg" viewBox="0 0 45 45"><defs><style>.cls-1{fill:#98cedc;}</style></defs><title>lci-09</title><g id="Слой_2" data-name="Слой 2"><g id="IconGrp"><path id="lci-09" class="cls-1" d="M22.5.85A21.65,21.65,0,1,1,.85,22.5,21.67,21.67,0,0,1,22.5.85m0-.85A22.5,22.5,0,1,0,45,22.5,22.52,22.52,0,0,0,22.5,0ZM38.05,24.51a2,2,0,0,1,1.85-2c-.1-2.5-1.63-4.64-5-5.8a7.75,7.75,0,0,0-3.53,6.6,7.86,7.86,0,0,0,2.59,5.91,8.48,8.48,0,0,0,4.93-3A2.06,2.06,0,0,1,38.05,24.51Zm-2-2.73a1,1,0,1,1,1-1A1,1,0,0,1,36.05,21.78Zm-5.86-7.61C30.1,12,28,11.11,25.64,11.3c-3.77.3-6.83,3.26-8.64,6.1a20.89,20.89,0,0,1,11.1-3.27C28.81,14.12,29.51,14.13,30.19,14.17ZM21.87,30.7c-1.08.86-1.64,1.79-1.35,2.47.44,1,2.78,1.06,5.21,0a9.41,9.41,0,0,0,2.61-1.62l-.85,0A20.69,20.69,0,0,1,21.87,30.7Zm7.76-7.4a8.13,8.13,0,0,1,4-7.18,21.42,21.42,0,0,0-5.83-.7c-5.14,0-11.36,3.65-15.38,5.74-.54-.45-4.14-5.48-6-5.51a3.52,3.52,0,0,0-1.12.15c.52,1.92,2.53,4.35,2.53,7s-2,5.1-2.54,7a3.48,3.48,0,0,0,.85.11c1.92,0,5.82-5.67,6.42-6.21,2.61,1.42,6.11,4.54,9.63,5.54a20.69,20.69,0,0,0,5.62.9l.85,0a21.74,21.74,0,0,0,3.88-.42A8.36,8.36,0,0,1,29.63,23.3Z"/></g></g></svg>