<svg xmlns="http://www.w3.org/2000/svg" viewBox="0 0 45 45"><defs><style>.cls-1{fill:#98cedc;}</style></defs><title>lci-017</title><g id="Слой_2" data-name="Слой 2"><g id="IconGrp"><path id="lci-017" class="cls-1" d="M22.5.85A21.65,21.65,0,1,1,.85,22.5,21.67,21.67,0,0,1,22.5.85m0-.85A22.5,22.5,0,1,0,45,22.5,22.52,22.52,0,0,0,22.5,0ZM10,17.56a28.92,28.92,0,0,0,3.24,6.15,9.68,9.68,0,0,0,1,1.22c4.28,4.58,15,4.14,18.85-1.91.6-.94,1.17-1.9,1.68-2.89a13.3,13.3,0,0,1,1.12-2.57c-1.44,1.51-6.75,2.64-13,2.64S11.39,19.07,10,17.56Zm11.13,1.68,1.17,0c5.42,0,9.82-1.14,9.82-2.54s-4.4-2.54-9.82-2.54l-1.17,0c4.87.15,8.65,1.22,8.65,2.52S26,19.09,21.09,19.24ZM22.38,15c2.36.34,4,1,4,1.72s-2.19,1.6-5.24,1.86c3.78,0,6.8-.84,6.8-1.81S25.54,15.14,22.38,15ZM34,16.83a1.23,1.23,0,0,1-.27.61,3.71,3.71,0,0,1-1.31,1A7.66,7.66,0,0,0,36,16.51a1.57,1.57,0,0,0,.33-.74c.34-2.13-5.67-3.85-13.42-3.85a44.59,44.59,0,0,0-6.54.45,18.15,18.15,0,0,1,1.6,1.3l.2.18a38.64,38.64,0,0,1,4.61-.26C29.22,13.59,34.26,15,34,16.83ZM9.48,15.77a1.5,1.5,0,0,0,.34.74,6.66,6.66,0,0,0,2.87,1.68,3.57,3.57,0,0,1-.91-.75,1.23,1.23,0,0,1-.27-.61c-.11-.8.84-1.53,2.5-2.1a16,16,0,0,0-2.23-1.21C10.21,14.15,9.35,14.93,9.48,15.77Zm-.37-5.46c-1.11,1.23,1.82,2.06,2.72,2.45a16.39,16.39,0,0,1,3.44,2c.37.29.71.83,1.11,1.23a11.69,11.69,0,0,0,2.14-.61c-.15-.63-1-1.33-1.44-1.74a19.1,19.1,0,0,0-3.26-2.39,4.79,4.79,0,0,1-1.06-.84A1.93,1.93,0,0,0,12,9.84a3.38,3.38,0,0,0-1.58-.13A2.22,2.22,0,0,0,9.11,10.31ZM34.53,22.69c-.25.41-.49.81-.75,1.22-4.08,6.42-15.48,6.89-20,2a10,10,0,0,1-1.06-1.29c-.42-.66-.84-1.32-1.24-2-2.85.87-4.6,2.18-4.6,3.93C6.86,30.12,14.08,33,23,33s16.13-2.87,16.13-6.41C39.12,24.86,37.36,23.56,34.53,22.69Z"/></g></g></svg>