<svg xmlns="http://www.w3.org/2000/svg" viewBox="0 0 45 45"><defs><style>.cls-1{fill:#98cedc;}</style></defs><title>lci-01</title><g id="Слой_2" data-name="Слой 2"><g id="IconGrp"><path id="lci-01" class="cls-1" d="M22.5.82A21.68,21.68,0,1,1,.82,22.5,21.7,21.7,0,0,1,22.5.82m0-.82A22.5,22.5,0,1,0,45,22.5,22.52,22.52,0,0,0,22.5,0ZM40,11.09a9.31,9.31,0,0,0-5.35.63,14.64,14.64,0,0,0-3,1.58l-.48-.36L29,10.86l-2-3.71-.53,3L20.69,6.4a30.73,30.73,0,0,0,3.08,5.2c1.49,1.8,2.75,3.24,2.75,3.24a17.69,17.69,0,0,1,.71,3.1,32,32,0,0,0,1.07,4.63l3.12-3s.22,1,3.3,2.65c3.91,2.16,5.21,1.49,5.21,1.49l-5.78-5.4,4.34.19a35.59,35.59,0,0,1-3.67-2.12,7.59,7.59,0,0,1-1.22-1.13,6.29,6.29,0,0,0-1.68,1.32c-.67.76-.87-.56-.41-1.08a7.29,7.29,0,0,1,1.4-1.21v0A16.1,16.1,0,0,1,35.13,13a8.44,8.44,0,0,1,5.17-.84C41.29,12.41,40.64,11.24,40,11.09ZM27.36,24.8l-1.82-9.07L21.89,11a12.73,12.73,0,0,0-8.67,3.73c-5,5-7.81,16.23-2.77,21.27s16,2,21-3a12.77,12.77,0,0,0,3.74-9l-3.63-2.52Zm-5.1-9.24c.75-.37,1.57-.25,1.82.27s-.15,1.24-.91,1.61-1.57.25-1.82-.27S21.5,15.93,22.26,15.56ZM17,14.92c.6-.6,1.41-.75,1.82-.34s.25,1.22-.34,1.81-1.41.75-1.82.34S16.43,15.51,17,14.92Zm-1.25,6.69c.41.41.26,1.22-.34,1.81s-1.4.75-1.81.34S13.36,22.54,14,22,15.37,21.2,15.77,21.61Zm-3.28-4.44c.52-.66,1.28-.93,1.7-.6s.32,1.13-.2,1.79-1.28.93-1.7.6S12,17.83,12.49,17.17Zm-1.38,8.18c-.41.73-1.12,1.12-1.58.86s-.5-1.07-.09-1.8,1.12-1.12,1.58-.86S11.52,24.62,11.11,25.35Zm.54,4.24c-.41-.41-.26-1.22.34-1.82s1.4-.74,1.81-.34.25,1.22-.34,1.82S12.05,30,11.65,29.59Zm3.72,3.91c-.62.56-1.44.67-1.83.24S13.35,32.51,14,32s1.45-.67,1.83-.25S16,32.94,15.37,33.5Zm3.05-5.35c-.6.6-1.41.75-1.82.34s-.25-1.22.34-1.81,1.41-.75,1.82-.34S19,27.56,18.42,28.15Zm.3-5.75c-.41-.4-.25-1.22.34-1.81s1.41-.75,1.82-.34.25,1.22-.34,1.81S19.13,22.81,18.72,22.4Zm3.08,9.66c-.62.57-1.44.67-1.83.24s-.18-1.23.44-1.79,1.45-.67,1.83-.24S22.43,31.5,21.8,32.06Zm2.51-5.27c-.59.6-1.4.75-1.81.34s-.26-1.22.34-1.81,1.41-.75,1.81-.34S24.91,26.2,24.31,26.79Z"/></g></g></svg>