<svg xmlns="http://www.w3.org/2000/svg" viewBox="0 0 45 45"><defs><style>.cls-1{fill:#98cedc;}</style></defs><title>lci-05</title><g id="Слой_2" data-name="Слой 2"><g id="IconGrp"><path id="lci-05" class="cls-1" d="M22.5.85A21.65,21.65,0,1,1,.85,22.5,21.67,21.67,0,0,1,22.5.85m0-.85A22.5,22.5,0,1,0,45,22.5,22.52,22.52,0,0,0,22.5,0Zm15,16.33a9.16,9.16,0,0,0-2.38-4.8,6.48,6.48,0,0,0-.73-.53,6.15,6.15,0,0,0-2.61-.94l-1-.24c-1-.22-1.89-.38-2.7-.55-.34,0-.69,0-1-.06a20.79,20.79,0,0,0-3.29.18c-.33,0-.65,0-1,0a17.18,17.18,0,0,0-6.59,1.34c-.31.13-.63.29-.94.45a7.26,7.26,0,0,0-2.3,1.69c-.22.23-.42.46-.62.71l-.56.81c-.23.25-.44.5-.65.76s-.41.52-.61.79-.5.51-.73.78c-2.37,2.77-4,7-2,10.86a4.7,4.7,0,0,0,.38.53c2.42,2.53,6.67,2,9.41.14,0,0,.05-.09.1-.1a.17.17,0,0,1,.1,0A9.24,9.24,0,0,1,21.86,30c.33.25.76.6,1.26,1.06l.53.51a6.39,6.39,0,0,1,.82.75,11.08,11.08,0,0,1,.74.9c.14.24.31.5.49.78s.39.57.6.86c.75,1.62,2.87,3.21,3.93,2.68,2.23-.64,2.55-2.8,1.91-4.92a8.31,8.31,0,0,0-.39-1.05C30,29,27.55,25.3,29.86,23.32a3.8,3.8,0,0,1,.84-.54c2.72-1.15,5.91-2.21,6.69-5.52A1.59,1.59,0,0,0,37.47,16.33Zm-18.87,2-.05-.06.14,0Z"/></g></g></svg>