<svg xmlns="http://www.w3.org/2000/svg" viewBox="0 0 45 45"><defs><style>.cls-1{fill:#98cedc;}</style></defs><title>lci-07</title><g id="Слой_2" data-name="Слой 2"><g id="IconGrp"><path id="lci-07" class="cls-1" d="M22.5.82A21.68,21.68,0,1,1,.82,22.5,21.7,21.7,0,0,1,22.5.82m0-.82A22.5,22.5,0,1,0,45,22.5,22.52,22.52,0,0,0,22.5,0ZM35,22.25A67.46,67.46,0,0,0,33,32.94a2.21,2.21,0,0,1-2.91,2L18.62,32a2.31,2.31,0,0,1-1.74-1.58h-.36a2.42,2.42,0,0,1-1.73-.66,2.17,2.17,0,0,1-2.55-2,67.19,67.19,0,0,0-2.11-10.6c-1.57-.4-2.66-1.16-3-2.24-.67-2.45,3-5.58,8.12-7C18.62,7,21.77,7,23.76,7.79a18.68,18.68,0,0,0-5.18.69c-5.16,1.42-8.8,4.55-8.12,7,.3,1.08,1.39,1.84,3,2.24.51,1.81.95,3.65,1.31,5.5Q15,20.1,15,17c-1.41-.8-2.26-1.83-2.26-3,0-2.53,4.33-4.59,9.68-4.59,3.45,0,6.48.86,8.2,2.15a18.29,18.29,0,0,0-5.19-.71c-5.35,0-9.68,2-9.68,4.59,0,1.12.85,2.14,2.26,2.94A68.24,68.24,0,0,1,17.38,28a67.18,67.18,0,0,0,3.07-9.38c-1.16-1.13-1.73-2.33-1.45-3.42.63-2.45,5.34-3.37,10.52-2s8.87,4.4,8.24,6.85C37.48,21.05,36.45,21.82,35,22.25Z"/></g></g></svg>