<svg xmlns="http://www.w3.org/2000/svg" viewBox="0 0 45 45"><defs><style>.cls-1{fill:#98cedc;}</style></defs><title>lci-08</title><g id="Слой_2" data-name="Слой 2"><g id="IconGrp"><path id="lci-08" class="cls-1" d="M22.5.82A21.68,21.68,0,1,1,.82,22.5,21.7,21.7,0,0,1,22.5.82m0-.82A22.5,22.5,0,1,0,45,22.5,22.52,22.52,0,0,0,22.5,0ZM35.29,26.58a2.18,2.18,0,0,1,.53,1.36c0,2.7-6,4.89-13.32,4.89S9.18,30.64,9.18,27.94a2.18,2.18,0,0,1,.53-1.36c1.6,2,6.72,3.53,12.79,3.53S33.69,28.62,35.29,26.58ZM22.5,24.67c-6.07,0-11.19-1.49-12.79-3.53a2.2,2.2,0,0,0-.53,1.36c0,2.7,6,4.89,13.32,4.89S35.82,25.2,35.82,22.5a2.2,2.2,0,0,0-.53-1.36C33.69,23.18,28.57,24.67,22.5,24.67Zm0-12.5c-7.35,0-13.32,2.19-13.32,4.89s6,4.9,13.32,4.9,13.32-2.19,13.32-4.9S29.85,12.17,22.5,12.17Z"/></g></g></svg>