<svg xmlns="http://www.w3.org/2000/svg" viewBox="0 0 45 45"><defs><style>.cls-1{fill:#98cedc;}</style></defs><title>lci-016</title><g id="Слой_2" data-name="Слой 2"><g id="IconGrp"><path id="lci-016" class="cls-1" d="M22.5.85A21.65,21.65,0,1,1,.85,22.5,21.67,21.67,0,0,1,22.5.85m0-.85A22.5,22.5,0,1,0,45,22.5,22.52,22.52,0,0,0,22.5,0Zm5.33,23.41a7.64,7.64,0,0,0,1.31-.87l2.07-8.25,2.28.48-.75,3h1.75l.95-4.18-4.06-.92L31.84,9l-4.17-.52-.21,1.72,2.15.25Zm-3.11-1.05.89,0,1.2-8.8.3-6.34-3.25-.15-.07,1.52,1.27.06ZM12.85,14.52l.79,3.24h1l0,.88a.71.71,0,0,1,0,.14v0a4.68,4.68,0,0,0,1.55,3.35l-.43-4.76-1.07-4.78L11,13.44l.31,1.4Zm2-1.72,1.68-.12.92,10.5a9.35,9.35,0,0,0,1.81.83L17.66,9.52l1.62-.14,1.64,15.05.53.08V13.88l2-.15.11-2.13H21.21l-.5-5-3.47.35.28,2.82L14.59,10ZM23,25.61c-5.2,0-9.43-3.06-9.5-6.83H10.63L13.51,36.6H30.92l4.5-17.82H32.55C32.48,22.55,28.24,25.61,23,25.61Z"/></g></g></svg>