<svg xmlns="http://www.w3.org/2000/svg" viewBox="0 0 45 45"><defs><style>.cls-1{fill:#98cedc;}</style></defs><title>lci-02</title><g id="Слой_2" data-name="Слой 2"><g id="IconGrp"><path id="lci-02" class="cls-1" d="M22.5.82A21.68,21.68,0,1,1,.82,22.5,21.7,21.7,0,0,1,22.5.82m0-.82A22.5,22.5,0,1,0,45,22.5,22.52,22.52,0,0,0,22.5,0Zm4.94,14.56a2.59,2.59,0,0,1,3.26-1.62,2.56,2.56,0,0,1,1.61,3.25A2.55,2.55,0,0,1,31,17.68a2.57,2.57,0,0,1-3.44-1.16A2.54,2.54,0,0,1,27.44,14.56ZM20,16.14a2.52,2.52,0,0,1,3.19-1.58,2.54,2.54,0,0,1,1.59,3.19,2.54,2.54,0,0,1-1.27,1.45,2.52,2.52,0,0,1-3.37-1.13A2.55,2.55,0,0,1,20,16.14Zm-7.75,1.05a2.6,2.6,0,0,1,1.29-1.48,2.57,2.57,0,1,1,.33,4.74,2.56,2.56,0,0,1-1.62-3.26Zm6,16.15C10.08,30.83,4.6,25.09,6,20.52a5.45,5.45,0,0,1,.57-1.25c.8.58,1.69,1.16,2.65,1.74A3.9,3.9,0,0,0,8,23.4a3.81,3.81,0,0,0,7.56.88l.78.33A3.75,3.75,0,1,0,23,27.33c0-.09,0-.18,0-.26l.91.28A3.7,3.7,0,1,0,30.49,30a4,4,0,0,0,0-.92c1.66.36,3.27.66,4.8.88C33.6,34.25,26.11,35.77,18.21,33.34Zm-1.59-6.51a2.73,2.73,0,0,1,4.81-1.51,2.74,2.74,0,0,1-.34,3.84,2.76,2.76,0,0,1-2,.63,2.74,2.74,0,0,1-2.47-3Zm7.57,2.69a2.63,2.63,0,0,1,.95-1.82A2.69,2.69,0,0,1,29.54,30a2.73,2.73,0,0,1-1,1.83,2.68,2.68,0,0,1-4.39-2.3Zm.42-6.9A22.28,22.28,0,0,1,14.42,23a2.74,2.74,0,0,1-.84,3A2.79,2.79,0,0,1,9,23.64a2.79,2.79,0,0,1,1-1.89,2.72,2.72,0,0,1,.57-.35,5.52,5.52,0,0,1-2.37-3.11A4.78,4.78,0,0,1,8.05,17c.94.07,2,.1,3,.09a3.69,3.69,0,0,0,.27,2.52A3.65,3.65,0,0,0,18,16.53l.8-.11a3.59,3.59,0,1,0,6.77-1.11l-.12-.21.89-.22a3.45,3.45,0,0,0,.33,2A3.53,3.53,0,0,0,33,13.77a3.8,3.8,0,0,0-.49-.74c1.53-.54,3-1.1,4.35-1.68C37.62,15.68,32.27,20.66,24.61,22.62Z"/></g></g></svg>