<svg xmlns="http://www.w3.org/2000/svg" viewBox="0 0 45 45"><defs><style>.cls-1{fill:#98cedc;}</style></defs><title>lci-03</title><g id="Слой_2" data-name="Слой 2"><g id="IconGrp"><path id="lci-03" class="cls-1" d="M22.5.82A21.68,21.68,0,1,1,.82,22.5,21.7,21.7,0,0,1,22.5.82m0-.82A22.5,22.5,0,1,0,45,22.5,22.52,22.52,0,0,0,22.5,0ZM33.77,36.61l.13-.12a2.29,2.29,0,0,0,.53-.78l.06-.13.15,0a2.71,2.71,0,0,0,.8,0,2,2,0,0,0,1-.44l0,0a2.58,2.58,0,0,0,.64-.86,5,5,0,0,0,.4-2.46v-.08l.06-.05a2.55,2.55,0,0,0,.73-2.26,2.75,2.75,0,0,0-.66-1.37l-.09-.1.09-.11a2.19,2.19,0,0,0,.51-1.75,2.31,2.31,0,0,0-.94-1.47l-.1-.08,0-.11a2.72,2.72,0,0,0,.11-1.3A2.49,2.49,0,0,0,37,22.4a2.41,2.41,0,0,1-.14.59,1.81,1.81,0,0,0-.09-.61l0-.09a1.65,1.65,0,0,0,.36-1.18,1.42,1.42,0,0,0-1-1.6l0-.06a1.08,1.08,0,0,0,.12-.24A1.88,1.88,0,0,0,34.78,17a2.28,2.28,0,0,0-.57-.1,4.15,4.15,0,0,0-.11-.48A2.65,2.65,0,0,0,32,14.52a2.86,2.86,0,0,0-.11-1.35,2.73,2.73,0,0,0-1.57-1.71,3.57,3.57,0,0,0-4.35-1.9l-.06,0a2.78,2.78,0,0,0-.56-.24,2.53,2.53,0,0,0-1.28,0l-.11,0-.06-.1A2.1,2.1,0,0,0,22.6,8.18a2.19,2.19,0,0,0-1.77.31l-.12.07-.09-.1a2.49,2.49,0,0,0-1.22-.77,2.56,2.56,0,0,0-2.29.48l-.06.05L17,8.2a5,5,0,0,0-2.44.13,2.7,2.7,0,0,0-.92.54l0,0a2,2,0,0,0-.58.94,2.43,2.43,0,0,0-.1.77v.15l-.13,0a2.78,2.78,0,0,0-.84.43l-.13.12a2,2,0,0,0-.58.9,2,2,0,0,0,0,1.21,2.59,2.59,0,0,0,.46.8l.09.1-.08.12a2.18,2.18,0,0,0-.3.64,2,2,0,0,0,0,1.09,2.75,2.75,0,0,0,.9,1.41,5.41,5.41,0,0,0,1.55.93l.07,0,0,.07a2.41,2.41,0,0,0,1.31,1.53l.09,0v.1a11.06,11.06,0,0,1-.51,4.77A20.68,20.68,0,0,1,12.94,29a2.74,2.74,0,0,0-1.22,3.42,2.71,2.71,0,0,0,3.21,2l.19-.08a.39.39,0,0,1,.08.1c2.6-2.37,3.84-3,4.89-3.22a11.49,11.49,0,0,1,4.92.26l.1,0,0,.09a2.72,2.72,0,0,0,1.42,1.59l.07,0,0,.07a6.42,6.42,0,0,0,.78,1.73,3.13,3.13,0,0,0,1.34,1.15,2.12,2.12,0,0,0,1.11.15,2.47,2.47,0,0,0,.69-.2l.13-.06.1.1a2.83,2.83,0,0,0,.76.6,2,2,0,0,0,1.23.24A1.86,1.86,0,0,0,33.77,36.61ZM25.31,18.3a.16.16,0,0,0,0-.07l.07.13A.6.6,0,0,1,25.31,18.3Zm-8.38,8.44c.9-1.48.65-3.34.86-5l0-.25.21.1a1.7,1.7,0,0,0,.35.14,2.21,2.21,0,0,0,1.6-.2l.1-.06.08.08c.21.22,1.13.43,1.16.58A44.85,44.85,0,0,1,16.93,26.74Zm2.86.58c.81-1,2.41-2.95,2.41-2.95a2.19,2.19,0,0,0,.44,1.19,2.7,2.7,0,0,0,.28.31l.2.17-.25.11-2.79,1.28-.36.16Zm4.05,2-3.05-.11H20.4l.2-.2c1.18-.54,3.49-1.49,3.49-1.49a2.11,2.11,0,0,0-.17,1.21,2,2,0,0,0,.1.38l.09.23Zm6.35,2.74A2.84,2.84,0,0,1,30.08,31a2.7,2.7,0,0,1-1.93-3,1.5,1.5,0,0,0,2.49-.66,2.18,2.18,0,0,0,.56-.09,2.15,2.15,0,0,0,1.27-2.77,2.3,2.3,0,0,0-1.14-1.36A2.32,2.32,0,0,0,32,20.54a2.41,2.41,0,0,0-1.67-1.64,2.39,2.39,0,0,1,1-.59,2.53,2.53,0,0,1,3.16,3.28,2.43,2.43,0,0,1,.54,4,2.69,2.69,0,0,1-.07,4,2.75,2.75,0,0,1,.49.89,2.73,2.73,0,0,1-5.19,1.68Z"/></g></g></svg>