<svg xmlns="http://www.w3.org/2000/svg" viewBox="0 0 45 45"><defs><style>.cls-1{fill:#98cedc;}</style></defs><title>lci-021</title><g id="Слой_2" data-name="Слой 2"><g id="IconGrp"><path id="lci-021" class="cls-1" d="M22.5.82A21.68,21.68,0,1,1,.82,22.5,21.7,21.7,0,0,1,22.5.82m0-.82A22.5,22.5,0,1,0,45,22.5,22.52,22.52,0,0,0,22.5,0ZM9.16,18.37l8.45-2.14c.3.24.63.48,1,.7l-6.07,1.5c-.66.16-.66.42,0,.58l4.67,1.15L22.78,19a37.36,37.36,0,0,0,7.9,2.42L25.92,22.6a7.46,7.46,0,0,1-3.05,0L9.16,19.14C8.32,18.93,8.31,18.58,9.16,18.37Zm22,17.47h0c-.41,1.43-3.48,2.55-7.22,2.55s-6.81-1.12-7.22-2.55h0L12.49,21.46l9.08,2.47a10.17,10.17,0,0,0,2.57.29,10.11,10.11,0,0,0,2.57-.29l9.16-2.48Zm3.32-15a14.59,14.59,0,0,1-1.62,0,28,28,0,0,1-9.15-2.56c-2.82-1.19-6.25-3.12-7.77-4.72a6.84,6.84,0,0,1-1.4-6.62A4,4,0,0,1,16,4.43a.57.57,0,0,1,.25-.1c.45,0,.7,1.09,1,2.37.64,2.94,1.72,6.23,5.38,6.74,1.27.18,2.62-.25,3.85.29s2.46,1.47,3.74,2.14a26.24,26.24,0,0,0,7.13,2.76c.51.1,2.2.17,2.5.61a.17.17,0,0,1,0,.17C39.36,20.72,35.51,20.75,34.47,20.8Z"/></g></g></svg>