<svg xmlns="http://www.w3.org/2000/svg" viewBox="0 0 45 45"><defs><style>.cls-1{fill:#98cedc;}</style></defs><title>lci-020</title><g id="Слой_2" data-name="Слой 2"><g id="IconGrp"><path id="lci-020" class="cls-1" d="M22.5.85A21.65,21.65,0,1,1,.85,22.5,21.67,21.67,0,0,1,22.5.85m0-.85A22.5,22.5,0,1,0,45,22.5,22.52,22.52,0,0,0,22.5,0ZM10.14,31.35a1.19,1.19,0,0,0,.69,1.72l2.66,1,.08-.16A39,39,0,0,1,16.86,29a26.86,26.86,0,0,0,3.51-5.69c1-2.24-3.16,3.54-4.1,4.33-3.1,2.59,4.94-6.22,5.43-12.89.12-1.69,1.46-2.12,2.13-2.69a6.43,6.43,0,0,0,2-2.51,4.62,4.62,0,0,0,.44-1.45V7.91a5.43,5.43,0,0,0-1.44-.61,8.22,8.22,0,0,1-.64,2.1,6.45,6.45,0,0,1-1.63,1.75c-3,2.26-3,4.16-3.43,6.65a11.76,11.76,0,0,1-1.51,4.47c-1.31,2.39-2.12,3.69-3.52,4.43S11,29.87,10.14,31.35Zm4.12,3.17,1.45.38a.82.82,0,0,0,1-.47,12.1,12.1,0,0,1,3-4.85,11.79,11.79,0,0,0,2.91-4.52,11.46,11.46,0,0,0,.82-4.73,8.87,8.87,0,0,1,.71-3.92A6.43,6.43,0,0,1,26,13.72a5.67,5.67,0,0,0,1.76-2.53,11,11,0,0,0,.41-1.72.8.8,0,0,0-.54-.86l-.23-.08,0,.26A4.64,4.64,0,0,1,27.07,10a5.81,5.81,0,0,1-1.75,2.36,7.66,7.66,0,0,0-2.12,2.85,9.68,9.68,0,0,0-1,4.08c-.07,1.21.34,2.85-.59,5A14.09,14.09,0,0,1,18.15,29a17.11,17.11,0,0,0-3.8,5.33ZM23.74,6.7a.84.84,0,0,0-1.1.5,5.17,5.17,0,0,1-2.53,3.13,5.39,5.39,0,0,0-.66.54A7.4,7.4,0,0,0,17.83,13a8.66,8.66,0,0,0-1.08,3.89,10.5,10.5,0,0,1-1.18,4.36,13.35,13.35,0,0,1-3.26,4.37h0a18.46,18.46,0,0,0-2.54,4.75h0A19.21,19.21,0,0,1,13,26.7l.07-.07a15.37,15.37,0,0,0,3.56-4.56,12.45,12.45,0,0,0,1.57-4.7,9.5,9.5,0,0,1,1.31-3.86,7.69,7.69,0,0,1,2.32-2.59A6.72,6.72,0,0,0,24,8.5a5.07,5.07,0,0,0,.51-1.36l0-.16Zm12.4,3.79c.16-.43-.21-.82-.77-.85l-2-.1,0,.1a24.71,24.71,0,0,1-1.79,3.5A22.52,22.52,0,0,0,29.26,18c-.72,2.16,2.25-3.34,2.89-4.06,2-2.24-3.49,5.86-3.53,13,0,2.17-1.42,3.13-2.13,4.11a13.51,13.51,0,0,0-2.25,4.39,13,13,0,0,0-.6,2.61l0,.26c0,.19,1.59.69,1.77.65a22.36,22.36,0,0,1,.79-3.86A13,13,0,0,1,28,31.89c3-3.93,2.84-6.26,2.92-9.1a12.66,12.66,0,0,1,.84-4.53c.79-2.19,1.27-3.32,2.26-4.11A9.24,9.24,0,0,0,36.14,10.49ZM32.81,9.41l-1,0a.66.66,0,0,0-.62.41,8.26,8.26,0,0,1-1.8,3.39A10.71,10.71,0,0,0,27.3,17a11.28,11.28,0,0,0-.59,4.26,11.12,11.12,0,0,1-.6,4.25,11.33,11.33,0,0,1-2,3.77A12,12,0,0,0,22,33.35a24.37,24.37,0,0,0-.68,2.87c-.11.63.11,1.17.55,1.29l.27.07.06-.46A11.88,11.88,0,0,1,22.76,35a12.69,12.69,0,0,1,2.1-4.07,13.22,13.22,0,0,0,2.21-4.25A13.22,13.22,0,0,0,27.86,22c0-1.18-.42-2.58.28-4.61a13,13,0,0,1,2.44-4,11.76,11.76,0,0,0,2.19-3.81Zm-6.1,30.31c.59.16,1.23-.46,1.37-1.32a11.26,11.26,0,0,1,2.69-6,7.57,7.57,0,0,0,.67-1A11.9,11.9,0,0,0,32.84,28a12.09,12.09,0,0,0,.41-4.83,11.29,11.29,0,0,1,.36-4.48,11.48,11.48,0,0,1,1.94-4.14h0a11.34,11.34,0,0,0,1-3.57h0A13.22,13.22,0,0,1,34.83,14l0,.06a13.12,13.12,0,0,0-2.21,4.22A13.22,13.22,0,0,0,31.8,23a13.29,13.29,0,0,1-.79,4.8A12.6,12.6,0,0,1,28.77,32a13.43,13.43,0,0,0-2.36,4.5,13,13,0,0,0-.62,2.6l0,.31Z"/></g></g></svg>