<svg xmlns="http://www.w3.org/2000/svg" viewBox="0 0 45 45"><defs><style>.cls-1{fill:#98cedc;}</style></defs><title>lci-010</title><g id="Слой_2" data-name="Слой 2"><g id="IconGrp"><path id="lci-010" class="cls-1" d="M22.5.82A21.68,21.68,0,1,1,.82,22.5,21.7,21.7,0,0,1,22.5.82m0-.82A22.5,22.5,0,1,0,45,22.5,22.52,22.52,0,0,0,22.5,0ZM15.31,13.25,13.4,14.43l2.29-.51ZM29.2,7.72l-13,2.41v1.41l13-2.83ZM21.46,27a12.11,12.11,0,0,1,7.31-5.18c2.95-.78,5.4-.31,6.49,1.05V17.69l-13.8,4.78ZM16.37,15.1,11.6,16.16l7.74,4.15ZM29.6,10l-13,2.85,4.77,8.34,13.53-4.68ZM10.4,31.8,20.16,37V22.22L10.4,17ZM36.56,17V32.45a.66.66,0,0,1-.42.61L21,38.72h0l-.08,0H20.7l-.07,0h0l-.07,0h0L9.45,32.76a.64.64,0,0,1-.35-.57V15.9a.19.19,0,0,1,0-.08v0s0,0,0-.07v0l0-.06v0l.06-.08,0,0,.05-.06,0,0,.07-.05h0L14.89,12V9.58A.64.64,0,0,1,15.43,9L29.69,6.31h.16A.65.65,0,0,1,30.5,7V9l6,7.37h0A.65.65,0,0,1,36.56,17ZM27.93,32c-2.93.78-5.37.31-6.47-1v6.19L35.26,32V26.78A12.14,12.14,0,0,1,27.93,32Z"/></g></g></svg>