<svg xmlns="http://www.w3.org/2000/svg" viewBox="0 0 45 45"><defs><style>.cls-1{fill:#98cedc;}</style></defs><title>lci_013</title><g id="Слой_2" data-name="Слой 2"><g id="IconGrp"><path id="lci_013" class="cls-1" d="M22.5.85A21.65,21.65,0,1,1,.85,22.5,21.67,21.67,0,0,1,22.5.85m0-.85A22.5,22.5,0,1,0,45,22.5,22.52,22.52,0,0,0,22.5,0ZM26,13.18h0Zm12.43,9.28a9.61,9.61,0,0,0-2.5-1.65,4.12,4.12,0,0,1-.13-2c.1-.95.27-1.2-.12-1.79a5.49,5.49,0,0,0-.39-.59,5,5,0,0,0-1.05-1,14,14,0,0,0-5.42-2c-.14,0-.31,0-.43-.08s-.18-.18-.27-.27A2.7,2.7,0,0,0,27,12.5C27,11,26.09,9.18,24.34,9.92a2.19,2.19,0,0,1-.35.13c-.09,0-.11,0-.18-.09a6,6,0,0,0-.62-.31A4.28,4.28,0,0,1,24.75,8a8.14,8.14,0,0,1,1.72-.71,2.15,2.15,0,0,1,.66-.15c.15,0,.3.13.45.12A.45.45,0,0,0,28,6.81a.55.55,0,0,0-.4-.47h0a3,3,0,0,0-.06.32,1.75,1.75,0,0,0-1.22.11,8.26,8.26,0,0,0-1.83.78,5,5,0,0,0-1.7,1.77c0,.06-.05,0,0,0s-.09-.11-.14-.16a2.57,2.57,0,0,0-.73-.74c-.69-.34-1.38.19-1.74.62a3,3,0,0,0-.8,1.8,2.84,2.84,0,0,0-2.42.45c-.86.81-.37,2.21-1.48,2.83-.53.29-1.19.49-1.8.77a7.65,7.65,0,0,0-2.95,2.17,2.94,2.94,0,0,0-.59,1.33c0,.18,0,.37,0,.58a22.13,22.13,0,0,0-.18,2.39c0,.06-.1.08-.15.11a9.69,9.69,0,0,0-2.86,2.18,4.07,4.07,0,0,0-1,2.21v.51A4.69,4.69,0,0,0,8,29.6a13.53,13.53,0,0,0,3.63,1.8A31.5,31.5,0,0,0,21,32.9h1.63c.23,0,.52,0,.77,0,.73,0,1.47-.06,2.17-.14a32.27,32.27,0,0,0,7.64-1.59,16.31,16.31,0,0,0,4.12-2,5.27,5.27,0,0,0,2.5-3.68v-.28A4,4,0,0,0,38.42,22.46ZM15.69,14.78c.49-.23,2.82.91,2.87-.23,0,0-1-.18-1.1-.22a.87.87,0,0,1-.63-.94,1.66,1.66,0,0,1,.47-1.11,1.43,1.43,0,0,1,1.62-.39,3.38,3.38,0,0,1,.68.58c.55.54,1.26,1.48,2.09,1.59a3.78,3.78,0,0,0,.95,0c.4,0,1.12-.3,1.16-.79-.58,0-1.31.47-1.88.25.1-.13.25-.11.42-.15a2.41,2.41,0,0,0,1.1-.66,2.51,2.51,0,0,0,.72-1.95,1.78,1.78,0,0,1,1.25-.24,1.84,1.84,0,0,1,1,1.82,1.63,1.63,0,0,1-.52,1.06c.16,0,.31-.14.49-.2a2,2,0,0,1,.63-.1,1.25,1.25,0,0,1,.87.44,1.76,1.76,0,0,1,.44.87,2,2,0,0,1-.7,1.85.59.59,0,0,1-.27.11,1.26,1.26,0,0,1-.52-.08,2.1,2.1,0,0,0-.52-.08,1.44,1.44,0,0,0-1.35,1,5.36,5.36,0,0,0-.15.55c3.22.32,7.21,1,10.36,1.24,0,1.77.06,3.57.11,5.34-2.06-.17-4.14-.33-6.19-.51a6.91,6.91,0,0,0-.16-1l0,0s0-.05,0-.06-.05-.05-.07-.08a1.6,1.6,0,0,0-.13-.3,5,5,0,0,0-.43-.5c-.43-.46-.9-.91-1.36-1.36-.31-.3-.64-.58-.93-.89a15.13,15.13,0,0,0-1.42-1,1,1,0,0,1-.27.4,2.37,2.37,0,0,1-2,0,6.62,6.62,0,0,1-2-1.21,2.17,2.17,0,0,1-.7-.91c.26,0,.6,0,.77.14-.2-.22-.57-.53-1-.41a.72.72,0,0,0-.44.63c0,.38.47.62.58.93.44,1.32-2.46.49-2.94.21A3.52,3.52,0,0,1,15,16.75,1.75,1.75,0,0,1,15.69,14.78ZM10,22.09a.37.37,0,0,0,.3.23c.34,0,.41-.77.72-.88a.58.58,0,0,1,.52.16c.46.41.49,1.35.86,1.94.12.19.31.44.5.44s.41-.34.53-.52.35-.54.69-.5.45.53.47.95a12.74,12.74,0,0,1,0,1.39,8.61,8.61,0,0,0-.06,2c0,.2.12.42.26.44s.33-.2.42-.39c.26-.55.12-1.48.33-2.07a1.31,1.31,0,0,1,.29-.47.93.93,0,0,1,.77-.33c.4.08.58.61.74,1a6.27,6.27,0,0,0,.29.58c.11.19.25.42.49.4.58-.06.53-1,.83-1.42a.67.67,0,0,1,.55-.3.81.81,0,0,1,.53.34c.15.17.27.34.39.48.27.33.7.88,1.18.69s.41-1,.75-1.25a.78.78,0,0,1,.6-.14c.33.07.57.42.75.66s.4.61.77.63a1,1,0,0,0,.69-.33,2.44,2.44,0,0,0,.72-1.3,2.9,2.9,0,0,1,.21-.81.73.73,0,0,1,.66-.25c.13,0,.19.13.26.28a3.84,3.84,0,0,1,.18.35c.09.22.16.58.4.68a.45.45,0,0,0,.16,0,.55.55,0,0,1,.54.54c0,1.11.05,2.21.06,3.33a.55.55,0,0,1-.4.54,24.7,24.7,0,0,1-5.51.79,18.39,18.39,0,0,1-8.73-1.5,6.84,6.84,0,0,1-2-1.37,5.22,5.22,0,0,1-1.23-2.17A22,22,0,0,1,10,22C10,22,10,22.05,10,22.09Zm12.49,9.7c-6.64,0-12.15-2-13.18-4.66a5.6,5.6,0,0,0,1.17,1.05,11.46,11.46,0,0,0,3,1.43,26.78,26.78,0,0,0,7.78,1.18s0,0,0,0h1.33c.2,0,.43,0,.64,0,.61,0,1.22-.05,1.8-.11a27.8,27.8,0,0,0,6.35-1.26,14,14,0,0,0,3.42-1.61,9.28,9.28,0,0,0,.86-.69C34.71,29.76,29.19,31.79,22.52,31.79Z"/></g></g></svg>