<svg xmlns="http://www.w3.org/2000/svg" viewBox="0 0 45 45"><defs><style>.cls-1{fill:#98cedc;}</style></defs><title>lci-019</title><g id="Слой_2" data-name="Слой 2"><g id="IconGrp"><path id="lci-019" class="cls-1" d="M22.5.82A21.68,21.68,0,1,1,.82,22.5,21.7,21.7,0,0,1,22.5.82m0-.82A22.5,22.5,0,1,0,45,22.5,22.52,22.52,0,0,0,22.5,0ZM11.64,17.34h0a4.05,4.05,0,0,1,1.63.32,6.18,6.18,0,0,1,.8.45l.17.11a2.09,2.09,0,0,0,.44.23,2.12,2.12,0,0,0,.8.13,2,2,0,0,0,.86-.16,3.13,3.13,0,0,0,.55-.31l.18-.11a4.08,4.08,0,0,1,.76-.4,4.12,4.12,0,0,1,1.49-.26h0a4.09,4.09,0,0,1,1.63.32,7.9,7.9,0,0,1,.8.45l.17.11a2.09,2.09,0,0,0,.44.23,2.45,2.45,0,0,0,1.66,0,3.53,3.53,0,0,0,.55-.31l.17-.11a4.55,4.55,0,0,1,.77-.4A4.1,4.1,0,0,1,27,17.34h0a4.05,4.05,0,0,1,1.63.32,6.18,6.18,0,0,1,.8.45l.18.11a1.88,1.88,0,0,0,.44.23,2,2,0,0,0,.79.13,2,2,0,0,0,.87-.16,3.47,3.47,0,0,0,.54-.31h0l.16-.1a4.55,4.55,0,0,1,.77-.4,4.1,4.1,0,0,1,1.48-.26h0a1,1,0,1,1,0,1.94,2,2,0,0,0-.87.16,3.47,3.47,0,0,0-.54.31l0,0-.15.1a4.2,4.2,0,0,1-.77.39,4.1,4.1,0,0,1-1.48.26h0a4.05,4.05,0,0,1-1.63-.32,6.18,6.18,0,0,1-.8-.45h0l-.16-.1a2.68,2.68,0,0,0-.43-.23,2.12,2.12,0,0,0-.8-.13,2,2,0,0,0-.87.16,3.47,3.47,0,0,0-.54.31l0,0-.15.1a4.2,4.2,0,0,1-.77.39,4.07,4.07,0,0,1-1.48.26h0a4.05,4.05,0,0,1-1.63-.32,6.18,6.18,0,0,1-.8-.45l0,0-.14-.09a2.71,2.71,0,0,0-.44-.23,2.12,2.12,0,0,0-.8-.13,2,2,0,0,0-.86.16,3.07,3.07,0,0,0-.54.31l-.19.12a4.82,4.82,0,0,1-.76.39,4.1,4.1,0,0,1-1.48.26h0a4,4,0,0,1-1.62-.32,6.37,6.37,0,0,1-.81-.45h0l-.16-.1a2.71,2.71,0,0,0-.44-.23,2,2,0,0,0-.79-.13,1,1,0,1,1,0-1.94Zm0-3.21h0a4.05,4.05,0,0,1,1.63.32,6.18,6.18,0,0,1,.8.45l.17.12a2.55,2.55,0,0,0,.44.22,2.12,2.12,0,0,0,.8.13,2,2,0,0,0,.86-.16,3.13,3.13,0,0,0,.55-.31l.18-.11a4.08,4.08,0,0,1,.76-.4,4.12,4.12,0,0,1,1.49-.26h0a4.09,4.09,0,0,1,1.63.32,7.9,7.9,0,0,1,.8.45L22,15a2.55,2.55,0,0,0,.44.22,2.45,2.45,0,0,0,1.66,0,3.53,3.53,0,0,0,.55-.31l.17-.11a4.55,4.55,0,0,1,.77-.4A4.1,4.1,0,0,1,27,14.13h0a4.05,4.05,0,0,1,1.63.32,6.18,6.18,0,0,1,.8.45l.18.12a2.24,2.24,0,0,0,.44.22,2,2,0,0,0,.79.13,2,2,0,0,0,.87-.16,3.47,3.47,0,0,0,.54-.31h0l.16-.1a4.55,4.55,0,0,1,.77-.4,4.1,4.1,0,0,1,1.48-.26h0a1,1,0,0,1,0,1.94,2,2,0,0,0-.87.16,3.47,3.47,0,0,0-.54.31l0,0-.15.1a4.2,4.2,0,0,1-.77.39,4.1,4.1,0,0,1-1.48.26h0A4.05,4.05,0,0,1,29.24,17a6.18,6.18,0,0,1-.8-.45h0l-.16-.1a2.68,2.68,0,0,0-.43-.23,2.12,2.12,0,0,0-.8-.13,2,2,0,0,0-.87.16,3.47,3.47,0,0,0-.54.31l0,0-.15.1a4.2,4.2,0,0,1-.77.39,4.07,4.07,0,0,1-1.48.26h0A4.05,4.05,0,0,1,21.54,17a6.18,6.18,0,0,1-.8-.45l0,0-.14-.09a2.71,2.71,0,0,0-.44-.23,2.12,2.12,0,0,0-.8-.13,2,2,0,0,0-.86.16,3.07,3.07,0,0,0-.54.31l-.19.12a4.82,4.82,0,0,1-.76.39,4.1,4.1,0,0,1-1.48.26h0A4,4,0,0,1,13.85,17a6.37,6.37,0,0,1-.81-.45h0l-.16-.1a2.71,2.71,0,0,0-.44-.23,2,2,0,0,0-.79-.13,1,1,0,0,1,0-1.94Zm0,6.37h0a4.05,4.05,0,0,1,1.63.32,6.18,6.18,0,0,1,.8.45l0,0,.14.09a2.71,2.71,0,0,0,.44.23,2.12,2.12,0,0,0,.8.13,2,2,0,0,0,.86-.16,3.93,3.93,0,0,0,.55-.31l0,0,.16-.1a4.41,4.41,0,0,1,.76-.39,4.12,4.12,0,0,1,1.49-.26h0a4.09,4.09,0,0,1,1.63.32,6.35,6.35,0,0,1,.8.45l.17.11a2.71,2.71,0,0,0,.44.23,2.45,2.45,0,0,0,1.66,0,3.66,3.66,0,0,0,.55-.32l.17-.11a5,5,0,0,1,.77-.39A4.1,4.1,0,0,1,27,20.5h0a4.05,4.05,0,0,1,1.63.32,7.15,7.15,0,0,1,.81.45h0l.16.1a2.71,2.71,0,0,0,.44.23,2,2,0,0,0,.79.13,2,2,0,0,0,.87-.16,4.53,4.53,0,0,0,.54-.31l0,0,.14-.09a4.58,4.58,0,0,1,.77-.39,4.1,4.1,0,0,1,1.48-.26h0a1,1,0,1,1,0,1.94,2.08,2.08,0,0,0-.87.15,4.73,4.73,0,0,0-.54.32l0,0-.15.09a4.87,4.87,0,0,1-.77.4,4.1,4.1,0,0,1-1.48.26h0a3.89,3.89,0,0,1-1.63-.33,4.47,4.47,0,0,1-.8-.45h0l-.16-.1a2.68,2.68,0,0,0-.43-.23,2.41,2.41,0,0,0-.8-.12,2.08,2.08,0,0,0-.87.15,4.73,4.73,0,0,0-.54.32l0,0-.15.09a4.87,4.87,0,0,1-.77.4,4.07,4.07,0,0,1-1.48.26h0a3.89,3.89,0,0,1-1.63-.33,4.47,4.47,0,0,1-.8-.45l-.17-.11a4.53,4.53,0,0,0-.44-.23,2.41,2.41,0,0,0-.8-.12,2,2,0,0,0-.86.15,4,4,0,0,0-.54.32l-.19.11a4.71,4.71,0,0,1-.76.4,4.1,4.1,0,0,1-1.48.26h0a3.84,3.84,0,0,1-1.62-.33A4.26,4.26,0,0,1,13,22.9h0l-.16-.11a3.61,3.61,0,0,0-.44-.23,2.29,2.29,0,0,0-.79-.12,1,1,0,1,1,0-1.94Zm0,3.27h0a4.05,4.05,0,0,1,1.63.32,5.16,5.16,0,0,1,.8.46h0l.14.09a2.09,2.09,0,0,0,.44.23,2.12,2.12,0,0,0,.8.13,1.85,1.85,0,0,0,.86-.16,3.13,3.13,0,0,0,.55-.31l0,0,.16-.09a4.37,4.37,0,0,1,.76-.4,4.12,4.12,0,0,1,1.49-.26h0a4.09,4.09,0,0,1,1.63.32,7.9,7.9,0,0,1,.8.45l.17.11a2.09,2.09,0,0,0,.44.23,2.06,2.06,0,0,0,.79.13,1.9,1.9,0,0,0,.87-.16,3.53,3.53,0,0,0,.55-.31l.17-.11a4.51,4.51,0,0,1,.77-.4A4.1,4.1,0,0,1,27,23.77h0a4.05,4.05,0,0,1,1.63.32,5.84,5.84,0,0,1,.81.46h0a.6.6,0,0,0,.15.09,1.88,1.88,0,0,0,.44.23,2,2,0,0,0,.79.13,1.9,1.9,0,0,0,.87-.16,3.47,3.47,0,0,0,.54-.31h0l.16-.1a4.55,4.55,0,0,1,.77-.4,4.1,4.1,0,0,1,1.48-.26h0a1,1,0,1,1,0,1.94,2,2,0,0,0-.87.16,3.47,3.47,0,0,0-.54.31l0,0-.15.1a4.2,4.2,0,0,1-.77.39,4.1,4.1,0,0,1-1.48.26h0a4.05,4.05,0,0,1-1.63-.32,6.18,6.18,0,0,1-.8-.45h0l-.16-.1a2.06,2.06,0,0,0-.43-.23,2.12,2.12,0,0,0-.8-.13,2,2,0,0,0-.87.16,3.47,3.47,0,0,0-.54.31l0,0-.15.1a4.2,4.2,0,0,1-.77.39,4.07,4.07,0,0,1-1.48.26h0a4.05,4.05,0,0,1-1.63-.32,6.18,6.18,0,0,1-.8-.45l-.17-.11a3,3,0,0,0-.44-.23,2.12,2.12,0,0,0-.8-.13,2,2,0,0,0-.86.16,3.07,3.07,0,0,0-.54.31l-.19.12A3.94,3.94,0,0,1,15.5,27h0a4,4,0,0,1-1.62-.32,5.74,5.74,0,0,1-.81-.45h0l-.16-.1a2.6,2.6,0,0,0-.44-.23,2,2,0,0,0-.79-.13,1,1,0,1,1,0-1.94Zm29.93,3.41A4.48,4.48,0,0,1,40.3,28a19.06,19.06,0,0,1-4.11,1.16,73.91,73.91,0,0,1-13.15,1,63.56,63.56,0,0,1-15.3-1.53A10.11,10.11,0,0,1,5,27.55a2.5,2.5,0,0,1-.92-.91,1.43,1.43,0,0,1,0-1.39,1.93,1.93,0,0,1,.43-.54,4.81,4.81,0,0,1,1.26-.78c.63-.29,4.67-2,4.63-.5,0,.68-.66.82-1.19.94-.37.08-.73.17-1.1.27a9.08,9.08,0,0,0-2.34.91,1.15,1.15,0,0,0-.41.37l0,0v0a1.69,1.69,0,0,0,.14.16,3.7,3.7,0,0,0,.87.53,18.41,18.41,0,0,0,3.79,1.06,72.94,72.94,0,0,0,12.89,1h0A63.23,63.23,0,0,0,38,27.26a9,9,0,0,0,2.34-.92,1.23,1.23,0,0,0,.42-.37v0a.76.76,0,0,0-.13-.15,3.38,3.38,0,0,0-.88-.53,5.48,5.48,0,0,0-.56-.23c-.5-.18-1-.33-1.52-.46-.29-.08-.6-.12-.88-.21-.52-.18-.87-.34-1-.93-.17-.95.58-.62,1.16-.5s.94.21,1.4.34a10.25,10.25,0,0,1,2.74,1.09,2.47,2.47,0,0,1,.91.91,1.43,1.43,0,0,1,0,1.39A2.08,2.08,0,0,1,41.57,27.18Z"/></g></g></svg>