<svg xmlns="http://www.w3.org/2000/svg" viewBox="0 0 45 45"><defs><style>.cls-1{fill:#98cedc;}</style></defs><title>lci-011</title><g id="Слой_2" data-name="Слой 2"><g id="IconGrp"><path id="lci-011" class="cls-1" d="M22.5.85A21.65,21.65,0,1,1,.85,22.5,21.67,21.67,0,0,1,22.5.85m0-.85A22.5,22.5,0,1,0,45,22.5,22.52,22.52,0,0,0,22.5,0ZM16.08,20.12c0,.8,3.09,1.45,6.89,1.45s6.89-.65,6.89-1.45a.41.41,0,0,0-.05-.18,14.41,14.41,0,0,0,.08-1.49C29.89,13,26.78,7.63,23,7.63S16,13,16,18.45a13.91,13.91,0,0,0,.09,1.6S16.08,20.1,16.08,20.12ZM22.46,9.74a1.24,1.24,0,0,1,.69.09A12.93,12.93,0,0,0,21,11.39a8.35,8.35,0,0,0-1.55,3.18.84.84,0,0,1-.13.25,5,5,0,0,1-.09-.88,4.11,4.11,0,0,1,.95-2.89A4.21,4.21,0,0,1,22.46,9.74Zm.44,15.32c4.87,0,7.6-1.06,8.09-1.67a11.78,11.78,0,0,0,.26-2.48v-.18c-.12,1.12-3.81,2-8.34,2s-8.31-.91-8.35-2c0,.07,0,.15,0,.22a11.78,11.78,0,0,0,.27,2.48C15.31,24,18,25.06,22.9,25.06Zm6.85,11.45h0c-.18-.46-1.11-.86-2.48-1.14a11.16,11.16,0,0,1-2.77-1.77,3.2,3.2,0,0,1-.66-1.18V30.85l.05,0A8.62,8.62,0,0,0,30.51,25,20.83,20.83,0,0,1,22.9,26.2,20.83,20.83,0,0,1,15.29,25a8.61,8.61,0,0,0,6.65,5.79l0,0v1.56a3.35,3.35,0,0,1-.66,1.18,11.25,11.25,0,0,1-2.78,1.77c-1.37.28-2.29.68-2.47,1.14h0a.41.41,0,0,0,0,.16c0,.93,3.07,1.69,6.86,1.69s6.86-.76,6.86-1.69a.41.41,0,0,0,0-.16Z"/></g></g></svg>