<svg xmlns="http://www.w3.org/2000/svg" viewBox="0 0 45 45"><defs><style>.cls-1{fill:#98cedc;}</style></defs><title>lci-012</title><g id="Слой_2" data-name="Слой 2"><g id="IconGrp"><path id="lci-012" class="cls-1" d="M22.5.82A21.68,21.68,0,1,1,.82,22.5,21.7,21.7,0,0,1,22.5.82m0-.82A22.5,22.5,0,1,0,45,22.5,22.52,22.52,0,0,0,22.5,0Zm4.2,30.17A4,4,0,0,1,23,26.88c-.66-2.61-2.29-5.75-9.14-6.82-4.05-.63-5.49-2.6-5.49-4.24,0-1.87,1.68-3.45,4.09-3.85.83,0,14.73.88,20.65,3.16,2.72,1,3.63,2.73,3.91,4A5.15,5.15,0,0,1,36,23.57c-2.27,2.4-6.42,6.12-8.53,6.53A3.51,3.51,0,0,1,26.7,30.17Zm-8.25-13.4a.79.79,0,0,0-.59.19.49.49,0,0,0-.13.36c0,.22,0,.22.78.56,2.74,1.22,8.15,2.89,8,6.64,0,1-.58,1.5-.82,2.45-.11.41,1.55,0,1.67-.08A6.09,6.09,0,0,0,29,24.76a9.91,9.91,0,0,1,1-1.49c.42-.43,1.9-1.29,1.46-1.06-.85.46,1.7-1,2.13-2,.25-.57.29-.92.13-1.16a.55.55,0,0,0-.48-.23,5.34,5.34,0,0,0-2.08,1,6.66,6.66,0,0,1-1.52.8,4.93,4.93,0,0,1-2.58-.77,11.25,11.25,0,0,0-1.58-.76l-.31-.12C21.57,17.47,19.37,16.77,18.45,16.77Zm20.13,2c-.37-1.65-1.54-3.89-5-5.21-6.39-2.46-21-3.24-21.15-3.24h-.19a6.39,6.39,0,0,0-5.43,4.3l0,0a14,14,0,0,0-.29,4.05,6.27,6.27,0,0,0,2.26,4.13,6.86,6.86,0,0,0,3.8,1.34c7.4.53,8.55,4.13,8.69,7.58a4.91,4.91,0,0,0,1.66,3.77,3.23,3.23,0,0,0,2.06.7,3.68,3.68,0,0,0,.8-.08,7.77,7.77,0,0,0,1.42-.45,7.3,7.3,0,0,0,1.07-.56,23.67,23.67,0,0,0,6.05-5.33,24.61,24.61,0,0,0,1.94-3C37.67,24.32,39.24,21.7,38.58,18.77ZM12.39,11.14h.07c.14,0,14.58.78,20.85,3.19,3.1,1.19,4.15,3.18,4.48,4.63a6.16,6.16,0,0,1-1.34,5.33c-2,2.12-6.49,6.27-9,6.75a4.58,4.58,0,0,1-.9.09,4.93,4.93,0,0,1-4.58-4c-.62-2.44-2.07-5.06-8.24-6C9.13,20.38,7.48,18,7.48,15.93,7.47,13.57,9.5,11.6,12.39,11.14Zm21.29,18.1a22.72,22.72,0,0,1-5.85,5.16,8.81,8.81,0,0,1-1,.5,6.33,6.33,0,0,1-1.26.4,2.63,2.63,0,0,1-2.2-.46,4.14,4.14,0,0,1-1.34-3.16c-.16-3.59-1.37-7.78-9.45-8.37a6.06,6.06,0,0,1-3.36-1.16,5.49,5.49,0,0,1-1.95-3.61,1.87,1.87,0,0,1,0-.27c.9,1.62,2.86,3.09,6.34,3.63,5.69.89,7,3.24,7.57,5.42a5.73,5.73,0,0,0,5.37,4.61,5.44,5.44,0,0,0,1.06-.1c2.39-.47,5.92-3.58,7.93-5.51v0A24.05,24.05,0,0,1,33.68,29.24Z"/></g></g></svg>