<svg xmlns="http://www.w3.org/2000/svg" viewBox="0 0 45 45"><defs><style>.cls-1{fill:#98cedc;}</style></defs><title>lci-04</title><g id="Слой_2" data-name="Слой 2"><g id="IconGrp"><path id="lci-04" class="cls-1" d="M22.5.85A21.65,21.65,0,1,1,.85,22.5,21.67,21.67,0,0,1,22.5.85m0-.85A22.5,22.5,0,1,0,45,22.5,22.52,22.52,0,0,0,22.5,0ZM13.32,21.05A28.4,28.4,0,0,0,13,25c0,5.84,1.78,11,4.55,14.39H28.84c2.77-3.35,4.55-8.55,4.55-14.39a28.4,28.4,0,0,0-.28-4Zm9.9,14.75a5.71,5.71,0,1,1,5.7-5.7A5.7,5.7,0,0,1,23.22,35.8Zm6.18-19A3.91,3.91,0,0,1,29.81,15l5.14-7a.85.85,0,0,0-.19-1.19l-.41-.3a.84.84,0,0,0-1,0,1,1,0,0,0-.24.22l-5.37,7.3c-.75.61-2.82.57-4.24,2.66l-.17.24ZM34.73,18H11.38a.7.7,0,0,0-.57.65v.61a.73.73,0,0,0,.76.68h23a.73.73,0,0,0,.76-.68v-.61A.69.69,0,0,0,34.73,18Z"/></g></g></svg>