<svg xmlns="http://www.w3.org/2000/svg" viewBox="0 0 45 45"><defs><style>.cls-1{fill:#98cedc;}</style></defs><title>lci-015</title><g id="Слой_2" data-name="Слой 2"><g id="IconGrp"><path id="lci-015" class="cls-1" d="M22.5.85A21.65,21.65,0,1,1,.85,22.5,21.67,21.67,0,0,1,22.5.85m0-.85A22.5,22.5,0,1,0,45,22.5,22.52,22.52,0,0,0,22.5,0ZM32.75,14.6l0-.11a1.49,1.49,0,0,1-.07-.49,2.84,2.84,0,0,1,.72-1.76l0,0L30.17,9.59l0,0a2.57,2.57,0,0,1-1.93,1.11H28l-.12-.05a4.31,4.31,0,0,0-1.9-.44h0a4.74,4.74,0,0,0-2,.45,3.41,3.41,0,0,0-1.22.86l-1.91,2.36a1.86,1.86,0,0,0-.42,1l0,.45-.42.13a1.88,1.88,0,0,0-.94.62l-.07.08a1.07,1.07,0,0,1,.41.21L29,24.53a.57.57,0,0,1,.11.11l.14-.17a1.89,1.89,0,0,0,.42-1l0-.44.43-.13a2,2,0,0,0,.93-.62L33,19.89a4.26,4.26,0,0,0,.72-2.47,4.39,4.39,0,0,0-.91-2.73Zm-22,12-.14-.15a1.76,1.76,0,0,0-.2.7l0,.45-.43.13a1.85,1.85,0,0,0-.93.62l-.67.83a1.89,1.89,0,0,0,.27,2.67l7.33,6a1.91,1.91,0,0,0,2.67-.28l.68-.83a1.89,1.89,0,0,0,.42-1l0-.44.43-.13a1.75,1.75,0,0,0,.5-.23,1.64,1.64,0,0,1-.22-.14Zm26.69-16.4-2.2,2.7a.64.64,0,0,1-.87.1s0,0,0,0A1.51,1.51,0,0,0,34,14v0A5.8,5.8,0,0,1,35,17.42a5.46,5.46,0,0,1-1,3.29l-1.91,2.35a3.18,3.18,0,0,1-1.17.9,3.16,3.16,0,0,1-.64,1.33l-.68.84a3.26,3.26,0,0,1-1.17.9,3.35,3.35,0,0,1-.64,1.33l-.68.83a3.15,3.15,0,0,1-1.17.9,3.28,3.28,0,0,1-.64,1.33l-.68.84a3.26,3.26,0,0,1-1.17.9,3.24,3.24,0,0,1-.65,1.33l-.67.83a3.15,3.15,0,0,1-1.17.9,3.18,3.18,0,0,1-.65,1.33l-.67.84a3.24,3.24,0,0,1-2.49,1.18h0a3.15,3.15,0,0,1-2-.72h0l-7.33-6a3.2,3.2,0,0,1-.47-4.51L8,27.55a3.18,3.18,0,0,1,1.17-.9,3.22,3.22,0,0,1,.64-1.33l.68-.83a3.18,3.18,0,0,1,1.17-.9,3.16,3.16,0,0,1,.64-1.33l.68-.84a3.18,3.18,0,0,1,1.17-.9,3.22,3.22,0,0,1,.64-1.33l.68-.83a3.18,3.18,0,0,1,1.17-.9,3.16,3.16,0,0,1,.64-1.33l.68-.84a3.26,3.26,0,0,1,1.17-.9,3.35,3.35,0,0,1,.64-1.33l1.92-2.35A4.64,4.64,0,0,1,23.4,9.48,6.37,6.37,0,0,1,26,8.91a5.65,5.65,0,0,1,2.32.5,1.49,1.49,0,0,0,.86-.61l0,0h0a.62.62,0,0,1-.09-.88l2.19-2.7a.63.63,0,0,1,.88-.1l5.25,4.27A.63.63,0,0,1,37.47,10.23Z"/></g></g></svg>