<svg xmlns="http://www.w3.org/2000/svg" viewBox="0 0 45 45"><defs><style>.cls-1{fill:#98cedc;}</style></defs><title>lci-018</title><g id="Слой_2" data-name="Слой 2"><g id="IconGrp"><path id="lci-018" class="cls-1" d="M22.5.85A21.65,21.65,0,1,1,.85,22.5,21.67,21.67,0,0,1,22.5.85m0-.85A22.5,22.5,0,1,0,45,22.5,22.52,22.52,0,0,0,22.5,0ZM40.34,19.82c0-.92-.73-1.73-2-2.4a3.39,3.39,0,0,0-2.76-1.87A4.45,4.45,0,0,0,35.84,14a4.27,4.27,0,0,0-4.16-4.38,4,4,0,0,0-2.44.84,5.14,5.14,0,0,0-3.91-1.82,5,5,0,0,0-2,.4,3.38,3.38,0,0,0-3-1.95A3.18,3.18,0,0,0,18,8.2a4.21,4.21,0,0,0-1.3,2.56,4.29,4.29,0,0,0-2.65,2.15,4.48,4.48,0,0,0-.64-.05,4.61,4.61,0,0,0-4.65,4.58,4.52,4.52,0,0,0,1.53,3.38c-1.65-.39-2.62-.75-2.62-1s.32-.33.9-.53a3.56,3.56,0,0,1-.33-1.56c0-.25,0-.49,0-.74-1.89.73-3,1.7-3,2.83a2.55,2.55,0,0,0,1.36,2,14.74,14.74,0,0,0,1.52,7.06c2.25,4.66,7.87,6.31,8.37,6.86a1.84,1.84,0,0,1,.3,1.46,21.71,21.71,0,0,0,12.27,0,1.84,1.84,0,0,1,.3-1.46c.5-.55,6.11-2.2,8.37-6.86a14.83,14.83,0,0,0,1.51-7.27A2.3,2.3,0,0,0,40.34,19.82Zm-6.23,1.27a57.24,57.24,0,0,1-11.3,1,57.35,57.35,0,0,1-11.31-1L11.21,21a4,4,0,0,1-.49-1.93A4.1,4.1,0,0,1,14.85,15a5.09,5.09,0,0,1,.56,0,3.84,3.84,0,0,1,2.36-1.9,3.76,3.76,0,0,1,1.15-2.28,2.87,2.87,0,0,1,2.13-1,3,3,0,0,1,2.63,1.73,4.45,4.45,0,0,1,1.75-.36,4.54,4.54,0,0,1,3.47,1.62,3.6,3.6,0,0,1,2.17-.74A3.79,3.79,0,0,1,34.76,16a4,4,0,0,1-.25,1.39,3,3,0,0,1,2.75,2.84A22.57,22.57,0,0,1,34.11,21.09Z"/></g></g></svg>