<svg xmlns="http://www.w3.org/2000/svg" viewBox="0 0 45 45"><defs><style>.cls-1{fill:#98cedc;}</style></defs><title>lci-022</title><g id="Слой_2" data-name="Слой 2"><g id="IconGrp"><path id="lci-022" class="cls-1" d="M22.5.85A21.66,21.66,0,1,1,.85,22.5,21.67,21.67,0,0,1,22.5.85m0-.85A22.5,22.5,0,1,0,45,22.5,22.52,22.52,0,0,0,22.5,0Zm5.59,34.05H14.75v2H28.09ZM39.25,10.83a.77.77,0,0,0-.94-.45L6.82,19.16A.69.69,0,0,0,6.3,20a.79.79,0,0,0,1,.45L39,12.33a.67.67,0,0,0,.52-.84Zm.81,9.58a.78.78,0,0,0-.69-.78L7,15.14a.68.68,0,0,0-.82.57.78.78,0,0,0,.69.79l32.31,5.17a.66.66,0,0,0,.81-.56ZM7.54,22.27A12.45,12.45,0,0,0,13.9,32.78H28.67A12.45,12.45,0,0,0,35,22.27ZM16,30.34a.93.93,0,0,1-.83.51.9.9,0,0,1-.42-.1,9.73,9.73,0,0,1-4.38-5.16.93.93,0,1,1,1.77-.6,7.86,7.86,0,0,0,3.45,4.09A.94.94,0,0,1,16,30.34Z"/></g></g></svg>