<svg xmlns="http://www.w3.org/2000/svg" viewBox="0 0 45 45"><defs><style>.cls-1{fill:#98cedc;}</style></defs><title>lci-014</title><g id="Слой_2" data-name="Слой 2"><g id="IconGrp"><path id="lci-014" class="cls-1" d="M22.5.85A21.65,21.65,0,1,1,.85,22.5,21.67,21.67,0,0,1,22.5.85m0-.85A22.5,22.5,0,1,0,45,22.5,22.52,22.52,0,0,0,22.5,0Zm.1,19.05c-5.06,0-9.4-1.09-10.57-2.54a32.18,32.18,0,0,0,3.09,6.7A9.43,9.43,0,0,0,19,26.72a8,8,0,0,0,3.64.94,8,8,0,0,0,3.64-.94,9.56,9.56,0,0,0,3.84-3.51,32.7,32.7,0,0,0,3.09-6.7C32,18,27.65,19.05,22.6,19.05Zm0-7.15c-6.33,0-11.23,1.41-11,3.15a1.26,1.26,0,0,0,.28.6A6.23,6.23,0,0,0,14.8,17.2a3.41,3.41,0,0,1-1.07-.79,1.06,1.06,0,0,1-.22-.5c-.19-1.46,3.93-2.65,9.2-2.65s9.38,1.19,9.19,2.65a1,1,0,0,1-.23.5,2.48,2.48,0,0,1-.74.61,5.44,5.44,0,0,0,2.35-1.37,1.36,1.36,0,0,0,.28-.6C33.83,13.31,28.92,11.9,22.6,11.9Zm.26,22.38c7.32,0,13-2.41,15.32-4.8a4.83,4.83,0,0,0,1.11-1.63,8.65,8.65,0,0,1-.59.68c-2.44,2.47-8.25,5-15.74,5h-.12c-7.5,0-13.31-2.5-15.75-5a5.85,5.85,0,0,1-.91-1.16,4.07,4.07,0,0,0,1.23,2.12c2.35,2.39,8,4.8,15.33,4.8ZM39,25.45c-.09-1.21-1.14-2.25-3.12-3.07a16.38,16.38,0,0,1-4,2.18,1.89,1.89,0,0,1,.32,1c0,2.18-4.18,3.94-9.34,3.94s-9.34-1.76-9.34-3.94a2.2,2.2,0,0,1,.74-1.54c-.59-1-1.06-1.81-1.46-2.58a14.19,14.19,0,0,0-4.31,1.6,3.23,3.23,0,0,0-1.76,2.38,2,2,0,0,0,0,.64,4.18,4.18,0,0,0,1.22,2c2.28,2.32,7.75,4.5,14.81,4.5h.12c7.06,0,12.53-2.18,14.81-4.5a4.59,4.59,0,0,0,1.13-1.69A2.42,2.42,0,0,0,39,25.45Zm-5.09-8.76a9.94,9.94,0,0,1-.52,1.71c1.77,0,2.36.5,1.76,1.31A9,9,0,0,1,32,22c-.24.2-.53.27-.81.46-.25.46-.49,1-.77,1.49,0,.06-.07.11-.1.16,2.81-.83,5.68-2.69,6.8-4.52C38.36,17.48,36.92,16.22,33.86,16.69ZM17,15.82c0-1.06,3.08-1.93,7.06-2.06h-1c-4.42,0-8,.93-8,2.07s3.59,2.07,8,2.07h1C20.1,17.75,17,16.88,17,15.82Zm1.5,0c0,.8,2.46,1.44,5.55,1.48-2.49-.22-4.28-.81-4.28-1.52s1.31-1.13,3.23-1.4C20.44,14.53,18.52,15.12,18.52,15.82Z"/></g></g></svg>